<svg width="24" height="24" viewBox="0 0 24 24" fill="none" xmlns="http://www.w3.org/2000/svg">
<g clip-path="url(#clip0)">
<path d="M12.0039 5.838C8.60095 5.838 5.84595 8.596 5.84595 11.996C5.84595 15.399 8.60395 18.154 12.0039 18.154C15.4069 18.154 18.1619 15.396 18.1619 11.996C18.1619 8.593 15.4039 5.838 12.0039 5.838ZM12.0039 15.993C9.79495 15.993 8.00695 14.204 8.00695 11.996C8.00695 9.788 9.79595 7.999 12.0039 7.999C14.2119 7.999 16.0009 9.788 16.0009 11.996C16.0019 14.204 14.2129 15.993 12.0039 15.993Z" fill="white"/>
<path d="M16.9477 0.0762869C14.7397 -0.0267131 9.27074 -0.0217131 7.06074 0.0762869C5.11874 0.167287 3.40574 0.636287 2.02474 2.01729C-0.283261 4.32529 0.011739 7.43529 0.011739 11.9963C0.011739 16.6643 -0.248261 19.7023 2.02474 21.9753C4.34174 24.2913 7.49674 23.9883 12.0037 23.9883C16.6277 23.9883 18.2237 23.9913 19.8587 23.3583C22.0817 22.4953 23.7597 20.5083 23.9237 16.9393C24.0277 14.7303 24.0217 9.26229 23.9237 7.05229C23.7257 2.83929 21.4647 0.284287 16.9477 0.0762869ZM20.4427 20.4483C18.9297 21.9613 16.8307 21.8263 11.9747 21.8263C6.97474 21.8263 4.96974 21.9003 3.50674 20.4333C1.82174 18.7563 2.12674 16.0633 2.12674 11.9803C2.12674 6.45529 1.55974 2.47629 7.10474 2.19229C8.37874 2.14729 8.75374 2.13229 11.9607 2.13229L12.0057 2.16229C17.3347 2.16229 21.5157 1.60429 21.7667 7.14829C21.8237 8.41329 21.8367 8.79329 21.8367 11.9953C21.8357 16.9373 21.9297 18.9543 20.4427 20.4483Z" fill="white"/>
<path d="M18.406 7.03401C19.2008 7.03401 19.845 6.38974 19.845 5.59501C19.845 4.80027 19.2008 4.15601 18.406 4.15601C17.6113 4.15601 16.967 4.80027 16.967 5.59501C16.967 6.38974 17.6113 7.03401 18.406 7.03401Z" fill="white"/>
</g>
<defs>
<clipPath id="clip0">
<rect width="24" height="24" fill="white"/>
</clipPath>
</defs>
</svg>
