<svg xmlns="http://www.w3.org/2000/svg" xmlns:xlink="http://www.w3.org/1999/xlink"><defs>
<clipPath id="clip0">
<rect width="24" height="24" fill="white"/>
</clipPath>

<clipPath id="clip0">
<rect width="24" height="24" fill="white"/>
</clipPath>

<clipPath id="clip0">
<rect width="24" height="24" fill="white"/>
</clipPath>

<clipPath id="clip0">
<rect width="24" height="24" fill="white"/>
</clipPath>
</defs><symbol id="arrow-menu" viewBox="0 0 31 8">
<path d="M0.646444 3.64644C0.451183 3.84171 0.451183 4.15829 0.646444 4.35355L3.82842 7.53553C4.02369 7.73079 4.34027 7.73079 4.53553 7.53553C4.73079 7.34027 4.73079 7.02369 4.53553 6.82842L1.70711 4L4.53553 1.17157C4.7308 0.976308 4.7308 0.659726 4.53553 0.464464C4.34027 0.269202 4.02369 0.269202 3.82842 0.464464L0.646444 3.64644ZM31 3.5L0.999998 3.5L0.999998 4.5L31 4.5L31 3.5Z" fill="white"/>
</symbol><symbol id="arrow-next" viewBox="0 0 71 8">
<path d="M70.3536 4.35355C70.5488 4.15829 70.5488 3.84171 70.3536 3.64645L67.1716 0.464466C66.9763 0.269204 66.6597 0.269204 66.4645 0.464466C66.2692 0.659728 66.2692 0.976311 66.4645 1.17157L69.2929 4L66.4645 6.82843C66.2692 7.02369 66.2692 7.34027 66.4645 7.53553C66.6597 7.7308 66.9763 7.7308 67.1716 7.53553L70.3536 4.35355ZM0 4.5H70V3.5H0V4.5Z" fill="white"/>
</symbol><symbol id="arrow-prev" viewBox="0 0 67 8">
<path d="M0.646454 3.64669C0.451195 3.84195 0.451195 4.15854 0.646454 4.3538L3.82843 7.53578C4.0237 7.73104 4.34028 7.73104 4.53554 7.53578C4.7308 7.34052 4.7308 7.02393 4.53554 6.82867L1.70712 4.00024L4.53554 1.17182C4.7308 0.976555 4.7308 0.659973 4.53554 0.464711C4.34028 0.269448 4.0237 0.269448 3.82843 0.464711L0.646454 3.64669ZM67 3.50024L1.00001 3.50024V4.50024L67 4.50024V3.50024Z" fill="white"/>
</symbol><symbol id="fb" viewBox="0 0 24 24">
<g clip-path="url(#clip0)">
<path d="M15.997 3.985H18.188V0.169C17.81 0.117 16.51 0 14.996 0C11.837 0 9.67301 1.987 9.67301 5.639V9H6.18701V13.266H9.67301V24H13.947V13.267H17.292L17.823 9.001H13.946V6.062C13.947 4.829 14.279 3.985 15.997 3.985Z" fill="white"/>
</g>

</symbol><symbol id="inst" viewBox="0 0 24 24">
<g clip-path="url(#clip0)">
<path d="M12.0039 5.838C8.60095 5.838 5.84595 8.596 5.84595 11.996C5.84595 15.399 8.60395 18.154 12.0039 18.154C15.4069 18.154 18.1619 15.396 18.1619 11.996C18.1619 8.593 15.4039 5.838 12.0039 5.838ZM12.0039 15.993C9.79495 15.993 8.00695 14.204 8.00695 11.996C8.00695 9.788 9.79595 7.999 12.0039 7.999C14.2119 7.999 16.0009 9.788 16.0009 11.996C16.0019 14.204 14.2129 15.993 12.0039 15.993Z" fill="white"/>
<path d="M16.9477 0.0762869C14.7397 -0.0267131 9.27074 -0.0217131 7.06074 0.0762869C5.11874 0.167287 3.40574 0.636287 2.02474 2.01729C-0.283261 4.32529 0.011739 7.43529 0.011739 11.9963C0.011739 16.6643 -0.248261 19.7023 2.02474 21.9753C4.34174 24.2913 7.49674 23.9883 12.0037 23.9883C16.6277 23.9883 18.2237 23.9913 19.8587 23.3583C22.0817 22.4953 23.7597 20.5083 23.9237 16.9393C24.0277 14.7303 24.0217 9.26229 23.9237 7.05229C23.7257 2.83929 21.4647 0.284287 16.9477 0.0762869ZM20.4427 20.4483C18.9297 21.9613 16.8307 21.8263 11.9747 21.8263C6.97474 21.8263 4.96974 21.9003 3.50674 20.4333C1.82174 18.7563 2.12674 16.0633 2.12674 11.9803C2.12674 6.45529 1.55974 2.47629 7.10474 2.19229C8.37874 2.14729 8.75374 2.13229 11.9607 2.13229L12.0057 2.16229C17.3347 2.16229 21.5157 1.60429 21.7667 7.14829C21.8237 8.41329 21.8367 8.79329 21.8367 11.9953C21.8357 16.9373 21.9297 18.9543 20.4427 20.4483Z" fill="white"/>
<path d="M18.406 7.03401C19.2008 7.03401 19.845 6.38974 19.845 5.59501C19.845 4.80027 19.2008 4.15601 18.406 4.15601C17.6113 4.15601 16.967 4.80027 16.967 5.59501C16.967 6.38974 17.6113 7.03401 18.406 7.03401Z" fill="white"/>
</g>

</symbol><symbol id="logo" viewBox="0 0 50 50">
<rect x="1" y="1" width="48" height="48" rx="24" stroke="white" stroke-width="2"/>
<path d="M7.18456 36.875L25 3.61774L42.8154 36.875H7.18456Z" stroke="white" stroke-width="2"/>
<path d="M25.0001 1.66667L34.382 21.6667H15.6181L25.0001 1.66667Z" fill="white"/>
<path d="M24.9999 26.6667L15.618 21.6667L34.3819 21.6667L24.9999 26.6667Z" fill="white"/>
</symbol><symbol id="tg" viewBox="0 0 24 24">
<g clip-path="url(#clip0)">
<path d="M9.41693 15.181L9.01994 20.765C9.58794 20.765 9.83393 20.521 10.1289 20.228L12.7919 17.683L18.3099 21.724C19.3219 22.288 20.0349 21.991 20.3079 20.793L23.9299 3.82099L23.9309 3.81999C24.2519 2.32399 23.3899 1.73899 22.4039 2.10599L1.11393 10.257C-0.339066 10.821 -0.317066 11.631 0.866934 11.998L6.30993 13.691L18.9529 5.77999C19.5479 5.38599 20.0889 5.60399 19.6439 5.99799L9.41693 15.181Z" fill="white"/>
</g>

</symbol><symbol id="vk" viewBox="0 0 24 24">
<g clip-path="url(#clip0)">
<path d="M19.915 13.028C19.527 12.538 19.638 12.32 19.915 11.882C19.92 11.877 23.123 7.451 23.453 5.95L23.455 5.949C23.619 5.402 23.455 5 22.662 5H20.038C19.37 5 19.062 5.345 18.897 5.731C18.897 5.731 17.561 8.929 15.671 11.002C15.061 11.601 14.779 11.793 14.446 11.793C14.282 11.793 14.027 11.601 14.027 11.054V5.949C14.027 5.293 13.84 5 13.287 5H9.161C8.742 5 8.493 5.306 8.493 5.591C8.493 6.213 9.438 6.356 9.536 8.106V11.903C9.536 12.735 9.385 12.888 9.05 12.888C8.158 12.888 5.993 9.677 4.71 6.002C4.451 5.289 4.198 5.001 3.525 5.001H0.9C0.151 5.001 0 5.346 0 5.732C0 6.414 0.892 9.805 4.148 14.285C6.318 17.343 9.374 19 12.154 19C13.825 19 14.029 18.632 14.029 17.999C14.029 15.077 13.878 14.801 14.715 14.801C15.103 14.801 15.771 14.993 17.331 16.468C19.114 18.217 19.407 19 20.405 19H23.029C23.777 19 24.156 18.632 23.938 17.906C23.439 16.379 20.067 13.238 19.915 13.028Z" fill="white"/>
</g>

</symbol></svg>